<svg xmlns="http://www.w3.org/2000/svg" xmlns:xlink="http://www.w3.org/1999/xlink" viewBox="0 0 765.89 952.94"><defs><style>.cls-1{fill:#2e9dd8;stroke:#1d1d1b;stroke-miterlimit:10;}.cls-2{fill:#0f3037;opacity:0.2;}.cls-3{fill:url(#radial-gradient);}.cls-4{fill:#fff;}.cls-19,.cls-22,.cls-4,.cls-5{opacity:0.5;}.cls-20,.cls-5{fill:#9cb5cc;}.cls-6{fill:url(#radial-gradient-2);}.cls-7{fill:url(#radial-gradient-3);}.cls-8{fill:url(#radial-gradient-4);}.cls-9{fill:url(#radial-gradient-5);}.cls-10{fill:#3fc0f0;}.cls-11{fill:#0697ab;opacity:0.3;}.cls-12{fill:url(#radial-gradient-6);}.cls-13{fill:url(#radial-gradient-7);}.cls-14{fill:url(#radial-gradient-8);}.cls-15{fill:url(#radial-gradient-9);}.cls-16{fill:url(#radial-gradient-10);}.cls-17{fill:#2f9dd9;}.cls-18{fill:url(#radial-gradient-11);}.cls-21{fill:url(#radial-gradient-12);}.cls-22{fill:#010101;}</style><radialGradient id="radial-gradient" cx="2351.18" cy="124.55" r="104.94" gradientTransform="matrix(-0.82, 0.5, 0.5, 0.82, 2150.79, -549.34)" gradientUnits="userSpaceOnUse"><stop offset="0" stop-color="#fff"/><stop offset="0.52" stop-color="#e5f3f7"/><stop offset="1" stop-color="#d1eaf1"/></radialGradient><radialGradient id="radial-gradient-2" cx="160.43" cy="592.97" r="123.94" gradientTransform="translate(48.75 -59.36) rotate(1.67) scale(0.97)" xlink:href="#radial-gradient"/><radialGradient id="radial-gradient-3" cx="337.94" cy="703.55" r="42.99" gradientTransform="translate(-14.42 44.05) rotate(-2.24) scale(0.97)" xlink:href="#radial-gradient"/><radialGradient id="radial-gradient-4" cx="331.99" cy="569.17" r="256.75" gradientTransform="translate(-14.42 44.05) rotate(-2.24) scale(0.97)" xlink:href="#radial-gradient"/><radialGradient id="radial-gradient-5" cx="332" cy="569.17" r="256.75" gradientTransform="translate(-14.42 44.05) rotate(-2.24) scale(0.97)" xlink:href="#radial-gradient"/><radialGradient id="radial-gradient-6" cx="332" cy="569.16" r="256.75" gradientTransform="translate(-14.42 44.05) rotate(-2.24) scale(0.97)" xlink:href="#radial-gradient"/><radialGradient id="radial-gradient-7" cx="367.69" cy="38.31" r="57.21" gradientTransform="matrix(1.41, -0.22, 0.19, 1.19, -312.86, 128.52)" xlink:href="#radial-gradient"/><radialGradient id="radial-gradient-8" cx="539.48" cy="38.32" r="57.21" gradientTransform="matrix(1.41, -0.22, 0.19, 1.19, -312.86, 128.52)" xlink:href="#radial-gradient"/><radialGradient id="radial-gradient-9" cx="401.31" cy="78.94" r="411.91" gradientTransform="matrix(0.95, -0.15, 0.15, 0.95, -96.71, 234.7)" xlink:href="#radial-gradient"/><radialGradient id="radial-gradient-10" cx="385.09" cy="45.92" r="372.87" gradientTransform="matrix(0.95, -0.15, 0.15, 0.95, -96.71, 234.7)" gradientUnits="userSpaceOnUse"><stop offset="0" stop-color="#2b2f2f"/><stop offset="0.09" stop-color="#272b2b"/><stop offset="0.62" stop-color="#161919"/><stop offset="1" stop-color="#101313"/></radialGradient><radialGradient id="radial-gradient-11" cx="758.74" cy="313.38" r="410.15" gradientTransform="translate(-14.42 44.05) rotate(-2.24) scale(0.97)" xlink:href="#radial-gradient"/><radialGradient id="radial-gradient-12" cx="230.03" cy="756.59" r="62.55" gradientTransform="translate(-14.42 44.05) rotate(-2.24) scale(0.97)" xlink:href="#radial-gradient-10"/></defs><g id="Camada_2" data-name="Camada 2"><g id="Camada_1-2" data-name="Camada 1"><circle class="cls-1" cx="382.95" cy="569.99" r="382.45"/><path class="cls-2" d="M715.23,269.7a33.65,33.65,0,0,0-35.68,2,359.31,359.31,0,0,0-3.88-36.89h0c-14.19-91.24-51.53-140.56-119.8-153.52C544.48,66.65,489.31-2.81,470.66.09c-15.37,2.39-36.74,58.73-46.9,88.14L303.3,107c-20-24.72-60.22-71.49-75.59-69.1-18,2.8-44.21,79.55-51,100.43-65.3,32.54-87.58,91.56-73,185.43h0c18.13,116.6,74.12,164.71,184.11,156-23.07,34.67-65.46,52.9-105.61,63.63-12.07,3.22-26.46,7.81-33.55,18.91A26.78,26.78,0,0,0,150,592c6.42,8.42,18.81,11.35,28.95,11.65,32.61,1,65.14-13.65,91.77-31.18,4.57-3,11.34-7.91,18.89-14-2.16,10.47-4.68,21.06-7.25,31.92h0c-9.07,33.6-29.2,103.27,21.08,114.62l1.88.42A40.87,40.87,0,0,0,328,704.1a24.45,24.45,0,0,0,13.84,7.36c15.46,2.4,30.38-11,33.32-29.94a41.76,41.76,0,0,0,.16-11.53q13.31,3.33,26.56,6.84c-.05,2.91-.19,5.8-.46,8.65a105.94,105.94,0,0,1-2.78,15.76,92.47,92.47,0,0,1-5.31,14.67,90.2,90.2,0,0,1-17.79,25.24c-2,1.76-3.76,3.65-5.88,5.34l-6.42,5L360,754c-1.1.74-2.26,1.38-3.38,2.08l-6.72,4.16c-9.28,4.66-18.8,8.26-28.67,9.8a90.07,90.07,0,0,1-29.87-.83,99.27,99.27,0,0,1-14.61-4.07c-2.32-1-4.7-1.83-6.87-2.91-1.15-.5-2.17-1-3.19-1.58-.53-.27-1-.54-1.41-.78a4.92,4.92,0,0,1-.78-.48,25.27,25.27,0,0,0-26.13,43.25c1.55.89,2.43,1.31,3.41,1.81s2,1,2.86,1.36c1.85.85,3.7,1.68,5.51,2.36,3.64,1.53,7.31,2.69,11,3.91A147.66,147.66,0,0,0,283.62,817a137.35,137.35,0,0,0,46.18-1.45c15.25-3.26,29.48-9.52,42.47-17.18l9.22-6.38c1.52-1.08,3.08-2.12,4.55-3.24l4.15-3.61,3.68-3.25c2.54,6,8.53,10.64,13.51,14.33a152.9,152.9,0,0,0,23.17,14.54,94.57,94.57,0,0,0,18.23,6.94c5.69,1.47,13.68,4,19.2.72,5.29-3.1,4.95-10.49,3.27-15.56,15.7-27.55,44.55-82,61.53-133.42.91-2.5,1.77-5.11,2.59-7.86.4-1.36.76-2.75,1.15-4.12,2.23-7.54,4.15-15,5.69-22.18h0c8.9-39.58,12.44-81.71,11.73-123.32a555.18,555.18,0,0,0,88.37-77,611.3,611.3,0,0,0,86.16-119.5A33.69,33.69,0,0,0,715.23,269.7Z"/><path class="cls-3" d="M380.46,620.49l1.4,3.41,1.47,3.93c.95,2.67,1.81,5.39,2.62,8.14a153.13,153.13,0,0,1,3.86,16.68,127.24,127.24,0,0,1,1.46,33.22,105.71,105.71,0,0,1-2.78,15.76,92.91,92.91,0,0,1-5.3,14.68,90.69,90.69,0,0,1-17.79,25.24c-2,1.76-3.76,3.65-5.88,5.33l-6.43,5-3.17,2.52c-1.11.75-2.27,1.38-3.39,2.08l-6.72,4.17c-9.28,4.66-18.8,8.26-28.67,9.8a90,90,0,0,1-29.86-.84,97.39,97.39,0,0,1-14.61-4.07c-2.33-1-4.71-1.82-6.88-2.91-1.15-.5-2.17-1-3.19-1.58-.53-.27-1-.53-1.41-.78a5.81,5.81,0,0,1-.78-.47,25.26,25.26,0,1,0-26.13,43.24c1.55.9,2.43,1.32,3.41,1.81s1.95,1,2.86,1.37c1.85.85,3.7,1.67,5.52,2.36,3.64,1.52,7.3,2.68,11,3.9a147.79,147.79,0,0,0,22.48,4.93A137.16,137.16,0,0,0,319.71,816c15.24-3.25,29.48-9.52,42.47-17.18l9.22-6.38c1.51-1.08,3.07-2.12,4.54-3.24l4.15-3.61,8.23-7.25c2.71-2.47,5.22-5.33,7.81-8a127.77,127.77,0,0,0,30.33-60,144.05,144.05,0,0,0,2.63-22,163.63,163.63,0,0,0-4.22-42.78A186.62,186.62,0,0,0,419,625.24c-1.18-3.31-2.43-6.59-3.8-9.86L413,610.47c-.8-1.73-1.44-3.1-2.57-5.28A16.82,16.82,0,0,0,380,619.29Z"/><path class="cls-4" d="M249.67,767.37c.74-2.25-2.23-5.27-6.64-6.74s-8.59-.83-9.33,1.42,2.22,5.26,6.63,6.73S248.92,769.62,249.67,767.37Z"/><path class="cls-4" d="M260.33,770.92c.36-1.08-1.07-2.54-3.2-3.25s-4.15-.4-4.51.68,1.07,2.55,3.2,3.26S260,772,260.33,770.92Z"/><path class="cls-5" d="M426.3,652.4l-31.94-7.68L390,654.27a126.63,126.63,0,0,1,1.23,31.6,105.71,105.71,0,0,1-2.78,15.76,92.91,92.91,0,0,1-5.3,14.68,90.69,90.69,0,0,1-17.79,25.24c-2,1.76-3.76,3.65-5.88,5.33l-6.42,5L351.75,753c18-9.78,29.75-3.53,20.81,19.31-7.35,18.78-44.64,45.38-90.56,44.09a16.12,16.12,0,0,0,4.63,2.21,136.26,136.26,0,0,0,33.08-2.6c15.24-3.25,29.48-9.52,42.47-17.18l9.22-6.38c1.51-1.08,3.07-2.12,4.54-3.24l4.15-3.61,8.23-7.25c2.71-2.47,5.22-5.33,7.81-8a127.77,127.77,0,0,0,30.33-60,144.05,144.05,0,0,0,2.63-22A161.76,161.76,0,0,0,426.3,652.4Z"/><path class="cls-6" d="M329.09,501.83c-11.47,28.64-52.81,60.73-68.5,71.06C234,590.43,201.43,605,168.82,604.07c-10.14-.29-22.53-3.22-28.95-11.64a26.78,26.78,0,0,1-1.33-29.8c7.09-11.1,21.48-15.69,33.55-18.92,41.32-11,85.06-30,107.63-66.63l.51-.79.24-.36,1.73-2.55a26.87,26.87,0,0,1,37.31-7.16C333.26,475.55,334.51,488.3,329.09,501.83Z"/><path class="cls-5" d="M260.59,572.89c15.69-10.33,57-42.42,68.5-71.06,2.94-7.35,3.89-14.46,2-20.92l-1.73-4.23a29.46,29.46,0,0,0-9.82-10.46,26.87,26.87,0,0,0-37.31,7.16l-1.73,2.55-.24.36-.51.79a101.6,101.6,0,0,1-7.55,10.64c-3.14,3.88-10.09,11-10.09,11,10.66-11.68,33.82,13.75,10,49.29s-95.48,62.79-129.8,47c6.79,6.41,17.54,8.77,26.54,9C201.43,605,234,590.43,260.59,572.89Z"/><path class="cls-7" d="M365,681.92c-2.94,18.93-17.85,32.33-33.32,29.93S306.07,692.16,309,673.23s17.86-32.33,33.32-29.93S367.94,663,365,681.92Z"/><path class="cls-5" d="M365,681.92c2.93-18.93-7.22-36.23-22.69-38.62s-30.38,11-33.32,29.93c-2.45,15.84,4.27,30.49,15.58,36.27-4.6-3.29,13.05-15.35,18.3-19s24.21-21.94,20.91-3.29A43.51,43.51,0,0,0,365,681.92Z"/><path class="cls-8" d="M461.15,803.3c19.27-33.8,58.32-108.11,71-167.58-27.86-8.09-68-9.24-96.15-16.33-12.55,61.6-26.42,103.42-50.34,149.85-1.51,2.93-3.49,6.67-2.82,10,1.49,7.49,8.69,13.07,14.48,17.37a153.23,153.23,0,0,0,23.18,14.53,94.92,94.92,0,0,0,18.22,6.95c5.69,1.46,13.68,4,19.21.72C463.18,815.75,462.83,808.37,461.15,803.3Z"/><path class="cls-9" d="M468,700.07c-4.6-1-9.5-2.89-13.79-4.33C402.34,678.37,350.92,667,297.8,653.88c-10.52-2.6-21.73-7.35-27.35-17.37s-3.43-23-1.23-32.69c10.16-44.87,22.37-83.9,12.72-128.8-1.44-6.71-3.21-13-.33-19.61,8.47-19.6,26.49-28.06,47-29.87C384,420.68,427.52,406.28,482.91,404c16.46-.69,25.82-9.26,38.24,5.15s18.66,39.27,20.46,60.29c5.53,64.25,1.54,132.48-16.34,192.62-3.75,12.59-8.13,22.54-16.48,30.61s-16.92,8.63-27.19,9.46C476.65,702.48,472.58,701,468,700.07Z"/><path class="cls-5" d="M283,480.2s56.09,33.28,82.57,46.73a21.71,21.71,0,0,0,19,.34c28.13-13.09,110.62-55.35,143-85.35C559.15,412.57,280.86,463.33,283,480.2Z"/><path class="cls-10" d="M281.94,475s48.06,28.14,84.56,47a15.36,15.36,0,0,0,12.9.58c27.44-11.25,132.12-56.32,151.74-97.18,22.61-47.11-83.75-42.39-83.75-42.39l-188,47.22Z"/><ellipse class="cls-11" cx="395.29" cy="438.38" rx="143.41" ry="49.21" transform="translate(-33.57 32.78) rotate(-4.56)"/><path class="cls-12" d="M345.51,668.67a361,361,0,0,1,12-65.64c-28.39-4.72-56.74-8.14-85.24-12.21-9.07,33.6-29.2,103.27,21.08,114.62l1.88.43C319.77,711.33,343.23,693.74,345.51,668.67Z"/><path class="cls-13" d="M164.9,143.94S196.78,41.49,217.61,38.25s87.32,83.92,87.32,83.92l3.25,20.9-140,21.77Z"/><path class="cls-10" d="M198.42,131.51c5.82-19.17,13.74-40.45,20.28-53.82,1.78-3.66,7.36-4.6,10.3-1.76,10.89,10.58,26,28.35,38.39,44.85Z"/><path class="cls-11" d="M218.7,77.69c-6.54,13.37-14.46,34.65-20.28,53.82L214.85,129c-.92-15.23,1.35-53.46,8.76-54.59A6.34,6.34,0,0,0,218.7,77.69Z"/><path class="cls-5" d="M220.85,38.46C251,62,296.14,131,304.07,143.71l4.11-.64-3.25-20.9S244.59,43.32,220.85,38.46Z"/><path class="cls-5" d="M198.42,131.51c5.82-19.17,13.74-40.45,20.28-53.82a6.34,6.34,0,0,1,4.91-3.33S217,73.51,209,90.16c-9.84,20.66-18.42,46.4-18.42,46.4l11.93-1.86,1.42-4Z"/><path class="cls-14" d="M407.85,106.17S439.72,3.72,460.56.48,547.88,84.4,547.88,84.4l3.25,20.9-140,21.77Z"/><path class="cls-10" d="M441.37,93.73c5.82-19.16,13.74-40.44,20.28-53.81,1.78-3.66,7.36-4.61,10.3-1.76,10.89,10.58,26,28.35,38.39,44.85Z"/><path class="cls-11" d="M461.65,39.92c-6.54,13.37-14.46,34.65-20.28,53.81l16.43-2.55c-.92-15.24,1.35-53.46,8.76-54.59A6.34,6.34,0,0,0,461.65,39.92Z"/><path class="cls-5" d="M463.8.68c30.12,23.5,75.29,92.5,83.22,105.25l4.11-.63-3.25-20.9S487.54,5.55,463.8.68Z"/><path class="cls-5" d="M441.37,93.73c5.82-19.16,13.74-40.44,20.28-53.81a6.34,6.34,0,0,1,4.91-3.33S459.9,35.74,452,52.38c-9.84,20.67-18.42,46.41-18.42,46.41l11.93-1.86,1.41-4.06Z"/><path class="cls-15" d="M507.81,445.44,307.74,476.55c-130,20.21-194.44-25.65-214.15-152.43h0c-19.71-126.79,27.76-190,157.76-210.26l200.07-31.1c130-20.22,194.44,25.65,214.15,152.43h0C685.28,362,637.81,425.23,507.81,445.44Z"/><path class="cls-5" d="M288.39,417c-48.52,7.54-83.5,4-104-10.58-20-14.22-33.75-44.92-41-91.26s-3.39-79.77,11.32-99.39c15.08-20.08,47.32-34.09,95.84-41.64l200.08-31.1c48.52-7.55,83.49-4,104,10.58,20,14.22,33.76,44.92,41,91.26s3.4,79.77-11.32,99.38c-15.07,20.09-47.31,34.1-95.83,41.64Z"/><path class="cls-16" d="M287.36,410.37c-46.73,7.27-80,4.1-99-9.41-18.44-13.12-31.3-42.33-38.21-86.8S146.6,238,160.18,219.85c14-18.63,44.76-31.76,91.49-39l200.07-31.1c46.72-7.27,80-4.1,99,9.4,18.44,13.13,31.29,42.34,38.21,86.81s3.53,76.2-10.06,94.31c-14,18.63-44.75,31.76-91.48,39Z"/><path class="cls-5" d="M451.85,82.68l-28.29,4.4C544,68.35,613.73,109.3,632,226.79h0c5.28,34,14.47,67.15-.14,87.7-21.12,29.71-46.16,57.62-74.77,87.6-15,15.69-43.52,15.23-71.29,19.55L290.4,452C172.24,470.39,112.56,429.8,93.07,317.39c.31,2.21.59,4.4.94,6.65h0c19.71,126.78,84.15,172.65,214.15,152.44l200.07-31.11C638.24,425.16,685.7,361.9,666,235.12h0C646.28,108.33,581.85,62.47,451.85,82.68Z"/><path class="cls-17" d="M343.26,281.45s9.72,37.08,28,34.23,16.56-39.52,16.56-39.52a27.5,27.5,0,0,1-20.72-3.52S352.77,287.71,343.26,281.45Z"/><path class="cls-10" d="M344.13,286.17c-5.09,0-10.85-2-17.13-7.72a3.49,3.49,0,0,1,4.71-5.14c11.36,10.4,19.07,4.9,25.87.05,2.66-1.9,5-3.54,7.36-3.91,2.73-.41,5.43.72,8.27,1.93,6.59,2.82,14.06,6,24.78-8.67a3.49,3.49,0,0,1,5.63,4.12c-14,19.15-26,14-33.15,11-1.65-.71-3.66-1.6-4.46-1.46s-2.86,1.61-4.38,2.7C357.65,281.88,351.63,286.17,344.13,286.17Z"/><path class="cls-10" d="M354,305.49c4.45,6.4,10.24,11.29,17.33,10.19,12.12-1.88,15.45-18.59,16.31-29.67C373.44,284.74,359.59,298.86,354,305.49Z"/><path class="cls-10" d="M446.13,241.68a3.48,3.48,0,0,1-2-6.31c17.9-12.88,42.65-24.73,43.69-25.23a3.49,3.49,0,1,1,3,6.3c-.2.1-16.25,7.78-31.56,17.26,10.29-.65,24.32-1.19,34.06-.25a3.49,3.49,0,1,1-.66,6.94c-16.13-1.55-45.86,1.25-46.16,1.28Z"/><path class="cls-10" d="M232,281a3.49,3.49,0,0,1-1.22-6.76,324,324,0,0,1,32-10.15c-15.81-3.88-32.22-6.17-32.43-6.2a3.49,3.49,0,1,1,.95-6.91c1.14.16,28.05,3.91,46.78,10.23a3.49,3.49,0,0,1-.56,6.75c-.17,0-17.75,2.93-44.33,12.82A3.5,3.5,0,0,1,232,281Z"/><path class="cls-4" d="M261.35,200.08c.68,3.51-8.47,8.21-20.42,10.51s-22.18,1.3-22.86-2.22,8.47-8.21,20.42-10.5S260.68,196.57,261.35,200.08Z"/><path class="cls-4" d="M290.25,194.53c.33,1.7-4.09,4-9.86,5.08s-10.72.63-11-1.07,4.09-4,9.86-5.07S289.93,192.84,290.25,194.53Z"/><path class="cls-18" d="M525.66,518.57a33.63,33.63,0,0,1-29.34-14.94c-10.34-15.45-6.4-33.84,9-44.19h0c.4-.27,40.64-29.86,77.21-69.65A545,545,0,0,0,659.36,283.3a33.68,33.68,0,0,1,59,32.57,610.59,610.59,0,0,1-86.16,119.5c-42.23,46-87.23,76.27-89.13,77.54A33.63,33.63,0,0,1,525.66,518.57Z"/><path class="cls-10" d="M692,296.5c-7.28-4-15-3.38-17.15,1.38s1.92,11.85,9.19,15.85,15,3.38,17.16-1.38S699.26,300.5,692,296.5Z"/><path class="cls-10" d="M712.93,299.54a3.83,3.83,0,0,0-5.22-1.65,4,4,0,0,0-1.13,5.44A3.84,3.84,0,0,0,711.8,305,4,4,0,0,0,712.93,299.54Z"/><path class="cls-10" d="M679.19,289.38a3.79,3.79,0,1,0-2.36-5A3.94,3.94,0,0,0,679.19,289.38Z"/><path class="cls-10" d="M699.17,283.62a3.74,3.74,0,0,0-5,2.1,4,4,0,0,0,2.57,4.92,3.75,3.75,0,0,0,5-2.1A4,4,0,0,0,699.17,283.62Z"/><path class="cls-10" d="M160.72,580.55c.6,7.47,4.87,13,9.55,12.24s8-7.32,7.38-14.79-4.87-13-9.55-12.25S160.12,573.08,160.72,580.55Z"/><path class="cls-10" d="M158.1,560.44a3.48,3.48,0,0,1,1,4.85,3.61,3.61,0,0,1-4.8,1.47,3.48,3.48,0,0,1-1-4.85A3.61,3.61,0,0,1,158.1,560.44Z"/><path class="cls-10" d="M157.64,590.79a3.69,3.69,0,1,1-2.63,4.27A3.55,3.55,0,0,1,157.64,590.79Z"/><path class="cls-10" d="M149.87,577.13a3.4,3.4,0,0,1,4.06,2.71,3.64,3.64,0,0,1-2.44,4.39,3.39,3.39,0,0,1-4.05-2.71A3.63,3.63,0,0,1,149.87,577.13Z"/><g class="cls-19"><path class="cls-20" d="M322.45,627.21h0c-14.77-4.57-21.09-8.85-22-23.51-1-16.88.09-37.4,2.81-52.28,2.9-15.85,10.59-22.2,25.7-21.23a1006.06,1006.06,0,0,1,123.32,16c14.83,2.89,20.71,11,19.67,27.27-1,15-4.79,34.86-10,51.91-4.69,15.41-13.9,17-27.41,17.76a273.3,273.3,0,0,1-50.29-2A370.34,370.34,0,0,1,322.45,627.21Zm6.31-93.66c-13.36-.86-19.57,4.32-22.16,18.47-2.69,14.64-3.77,34.85-2.76,51.47.8,13.32,6.59,16.48,19.6,20.5,40.28,12.46,76.57,17.62,111,15.77,13.61-.73,20.45-2.49,24.37-15.38,5.12-16.82,8.89-36.42,9.83-51.15s-3.64-21.15-16.94-23.74c-19.76-3.84-40.47-7.17-61.15-9.86C369.55,536.9,348.63,534.83,328.76,533.55Z"/></g><path class="cls-5" d="M343.69,556.67c23,2.3,48.63,4.73,71.49,8,5.7.81,8.69-1.78,9.41-6.63.16-1.07.74.17,0,0,.72-4.85-1.68-8.55-7.42-9.35-23.06-3.2-48.93-6.23-72.18-7.73-5.78-.37-8.75,2.13-9.17,7.17h0C335.4,553.15,338,556.1,343.69,556.67Z"/><path class="cls-5" d="M447.64,816.3c-1.63,2.1-7.94.24-9.6-.3q-5.35-1.74-10.54-3.93a135.13,135.13,0,0,1-19.92-10.4c-3-1.91-6-4-8.84-6.12-3.67-2.73-7.78-5.65-10.47-9.41-1.39-1.94-1.71-4.43,1.44-4.15,5.08.45,9.8,2.49,14.41,4.54,7.13,3.17,14.16,6.58,20.95,10.42s13.66,7.89,19.48,12.93c1.24,1.08,2.88,2.49,3.33,4.14A2.48,2.48,0,0,1,447.64,816.3Z"/><path class="cls-5" d="M347,654.84l-1.21,10.74h0c24.81,6.06,49.38,12.28,73.94,19.44l.07,0,3.89-10.82C373.37,674.62,347,654.84,347,654.84Z"/><path class="cls-21" d="M294.1,771.2l-.08-.05a91.49,91.49,0,0,1-12.74-1.52,97.39,97.39,0,0,1-14.61-4.07c-2.33-1-4.71-1.82-6.88-2.91-1.15-.5-2.17-1-3.19-1.58-.53-.27-1-.53-1.41-.78a7,7,0,0,1-.78-.47,25.26,25.26,0,1,0-26.13,43.24c1.55.9,2.43,1.32,3.41,1.81s1.95,1,2.86,1.37c1.85.85,3.7,1.67,5.52,2.36,3.64,1.52,7.3,2.68,11,3.9a147.79,147.79,0,0,0,22.48,4.93A134,134,0,0,0,287,818.59C264.64,814.08,270.8,773,294.1,771.2Z"/><path class="cls-22" d="M222.35,798.1a25.11,25.11,0,0,0,5.93,5c1.55.9,2.43,1.32,3.41,1.81s1.95,1,2.86,1.37c1.85.85,3.7,1.67,5.52,2.36,3.64,1.52,7.3,2.68,11,3.9a147.79,147.79,0,0,0,22.48,4.93c4.34.6,8.72,1,13.11,1.15a16.12,16.12,0,0,1-4.63-2.21C263.08,815.83,242.71,810.6,222.35,798.1Z"/><path class="cls-4" d="M251.56,769.51c-.68,2.27-4.94,2.87-9.5,1.33s-7.71-4.63-7-6.9,4.93-2.88,9.5-1.34S252.24,767.23,251.56,769.51Z"/><path class="cls-4" d="M262.6,773.22c-.33,1.1-2.39,1.39-4.59.65s-3.73-2.24-3.4-3.34,2.39-1.39,4.59-.64S262.93,772.12,262.6,773.22Z"/><ellipse class="cls-2" cx="378.89" cy="866.85" rx="162.82" ry="17.51"/><path class="cls-5" d="M529.31,501.23a14.35,14.35,0,0,0-6.5,12.72c1.77,33.54,3.4,163.93-68.43,266.92-1.87,2.69-17.49-.51-23.29-1.25,0,0,21.54,9.84,30.06,23.68,15.71-27.55,44.55-82,61.53-133.42.91-2.51,1.77-5.11,2.59-7.86.4-1.37.76-2.75,1.16-4.12,2.22-7.55,4.15-15,5.68-22.18h0c8.9-39.57,12.43-81.7,11.72-123.32a553.55,553.55,0,0,0,88.37-77,610.59,610.59,0,0,0,86.16-119.5,33.67,33.67,0,0,0-13.2-45.77C727.46,281.81,646.73,423.57,529.31,501.23Z"/></g></g></svg>