<svg xmlns="http://www.w3.org/2000/svg" xmlns:xlink="http://www.w3.org/1999/xlink" viewBox="0 0 643.33 884.35"><defs><style>.cls-1{fill:#0f3037;opacity:0.2;}.cls-2{fill:url(#radial-gradient);}.cls-3{fill:#fff;}.cls-18,.cls-21,.cls-3,.cls-4{opacity:0.5;}.cls-19,.cls-4{fill:#9cb5cc;}.cls-5{fill:url(#radial-gradient-2);}.cls-6{fill:url(#radial-gradient-3);}.cls-7{fill:url(#radial-gradient-4);}.cls-8{fill:url(#radial-gradient-5);}.cls-9{fill:#3fc0f0;}.cls-10{fill:#0697ab;opacity:0.3;}.cls-11{fill:url(#radial-gradient-6);}.cls-12{fill:url(#radial-gradient-7);}.cls-13{fill:url(#radial-gradient-8);}.cls-14{fill:url(#radial-gradient-9);}.cls-15{fill:url(#radial-gradient-10);}.cls-16{fill:#2f9dd9;}.cls-17{fill:url(#radial-gradient-11);}.cls-20{fill:url(#radial-gradient-12);}.cls-21{fill:#010101;}</style><radialGradient id="radial-gradient" cx="515.53" cy="624.99" r="104.94" gradientTransform="matrix(-0.82, 0.5, 0.5, 0.82, 296.47, -37.18)" gradientUnits="userSpaceOnUse"><stop offset="0" stop-color="#fff"/><stop offset="0.52" stop-color="#e5f3f7"/><stop offset="1" stop-color="#d1eaf1"/></radialGradient><radialGradient id="radial-gradient-2" cx="103.29" cy="564.85" r="123.94" gradientTransform="translate(13.82 -30.6) rotate(1.67) scale(0.97)" xlink:href="#radial-gradient"/><radialGradient id="radial-gradient-3" cx="280.73" cy="740.84" r="42.99" gradientTransform="translate(-49.9 5.9) rotate(-2.24) scale(0.97)" xlink:href="#radial-gradient"/><radialGradient id="radial-gradient-4" cx="274.78" cy="606.46" r="256.75" gradientTransform="translate(-49.9 5.9) rotate(-2.24) scale(0.97)" xlink:href="#radial-gradient"/><radialGradient id="radial-gradient-5" cx="274.79" cy="606.47" r="256.75" gradientTransform="translate(-49.9 5.9) rotate(-2.24) scale(0.97)" xlink:href="#radial-gradient"/><radialGradient id="radial-gradient-6" cx="274.79" cy="606.46" r="256.75" gradientTransform="translate(-49.9 5.9) rotate(-2.24) scale(0.97)" xlink:href="#radial-gradient"/><radialGradient id="radial-gradient-7" cx="-7.93" cy="156.98" r="57.21" gradientTransform="matrix(1.41, -0.22, 0.19, 1.19, 107.04, -95.5)" xlink:href="#radial-gradient"/><radialGradient id="radial-gradient-8" cx="163.87" cy="156.99" r="57.21" gradientTransform="matrix(1.41, -0.22, 0.19, 1.19, 107.04, -95.5)" xlink:href="#radial-gradient"/><radialGradient id="radial-gradient-9" cx="333.86" cy="226.15" r="411.91" gradientTransform="matrix(0.95, -0.15, 0.15, 0.95, -143.47, 84.18)" xlink:href="#radial-gradient"/><radialGradient id="radial-gradient-10" cx="317.64" cy="193.13" r="372.87" gradientTransform="matrix(0.95, -0.15, 0.15, 0.95, -143.47, 84.18)" gradientUnits="userSpaceOnUse"><stop offset="0" stop-color="#2b2f2f"/><stop offset="0.09" stop-color="#272b2b"/><stop offset="0.62" stop-color="#161919"/><stop offset="1" stop-color="#101313"/></radialGradient><radialGradient id="radial-gradient-11" cx="701.52" cy="350.68" r="410.15" gradientTransform="translate(-49.9 5.9) rotate(-2.24) scale(0.97)" xlink:href="#radial-gradient"/><radialGradient id="radial-gradient-12" cx="172.81" cy="793.88" r="62.55" gradientTransform="translate(-49.9 5.9) rotate(-2.24) scale(0.97)" xlink:href="#radial-gradient-10"/></defs><g id="Camada_2" data-name="Camada 2"><g id="Camada_1-2" data-name="Camada 1"><path class="cls-1" d="M625.93,269.7a33.65,33.65,0,0,0-35.68,2,362.13,362.13,0,0,0-3.88-36.89h0c-14.19-91.24-51.53-140.56-119.8-153.52C455.18,66.65,400-2.81,381.36.09,366,2.48,344.62,58.82,334.46,88.23L214,107c-20-24.72-60.22-71.49-75.59-69.1-18,2.8-44.21,79.55-51,100.43-65.3,32.54-87.59,91.56-73,185.43h0c18.13,116.6,74.12,164.71,184.11,156-23.07,34.67-65.46,52.9-105.61,63.63-12.08,3.22-26.46,7.81-33.55,18.91A26.78,26.78,0,0,0,60.67,592c6.41,8.42,18.81,11.35,29,11.65,32.61,1,65.14-13.65,91.77-31.18,4.57-3,11.34-7.91,18.89-14-2.16,10.47-4.69,21.06-7.25,31.92h0C184,624,163.83,693.7,214.1,705.05l1.89.42a40.83,40.83,0,0,0,22.65-1.37,24.49,24.49,0,0,0,13.84,7.36c15.47,2.4,30.39-11,33.32-29.94A41.38,41.38,0,0,0,286,670q13.3,3.33,26.56,6.84c0,2.91-.2,5.8-.46,8.65a107.25,107.25,0,0,1-2.78,15.76A92.47,92.47,0,0,1,304,715.91a90.2,90.2,0,0,1-17.79,25.24c-2,1.76-3.76,3.65-5.88,5.34l-6.42,5L270.71,754c-1.11.74-2.26,1.38-3.38,2.08l-6.73,4.16c-9.28,4.66-18.8,8.26-28.66,9.8a90.07,90.07,0,0,1-29.87-.83,98.93,98.93,0,0,1-14.61-4.07c-2.32-1-4.7-1.83-6.88-2.91-1.14-.5-2.17-1-3.18-1.58-.54-.27-1-.54-1.41-.78a5.62,5.62,0,0,1-.79-.48,25.27,25.27,0,0,0-26.13,43.25c1.55.89,2.43,1.31,3.42,1.81s1.95,1,2.86,1.36c1.85.85,3.7,1.68,5.51,2.36,3.64,1.53,7.31,2.69,11,3.91A147.66,147.66,0,0,0,194.32,817a137.35,137.35,0,0,0,46.18-1.45c15.25-3.26,29.48-9.52,42.47-17.18l9.22-6.38c1.52-1.08,3.08-2.12,4.55-3.24l4.14-3.61,3.69-3.25c2.53,6,8.53,10.64,13.51,14.33a152.9,152.9,0,0,0,23.17,14.54,94.32,94.32,0,0,0,18.23,6.94c5.69,1.47,13.68,4,19.2.72,5.29-3.1,4.95-10.49,3.27-15.56,15.7-27.55,44.55-82,61.52-133.42.92-2.5,1.78-5.11,2.59-7.86.41-1.36.77-2.75,1.16-4.12,2.23-7.54,4.15-15,5.68-22.18h0c8.9-39.58,12.44-81.71,11.73-123.32A555.18,555.18,0,0,0,553,435a611.3,611.3,0,0,0,86.16-119.5A33.7,33.7,0,0,0,625.93,269.7Z"/><path class="cls-2" d="M291.15,620.49l1.41,3.41,1.47,3.93c.94,2.67,1.81,5.39,2.62,8.14a150.78,150.78,0,0,1,3.85,16.68A126.82,126.82,0,0,1,302,685.87a105.71,105.71,0,0,1-2.78,15.76,92.94,92.94,0,0,1-5.31,14.68,90.49,90.49,0,0,1-17.79,25.24c-2,1.76-3.76,3.65-5.88,5.33l-6.42,5-3.18,2.52c-1.1.75-2.26,1.38-3.38,2.08l-6.72,4.17c-9.28,4.66-18.8,8.26-28.67,9.8a90.08,90.08,0,0,1-29.87-.84,98.05,98.05,0,0,1-14.61-4.07c-2.32-1-4.7-1.82-6.87-2.91-1.15-.5-2.17-1-3.19-1.58-.53-.27-1-.53-1.41-.78a5.81,5.81,0,0,1-.78-.47A25.26,25.26,0,1,0,139,803.06c1.55.9,2.43,1.32,3.41,1.81s2,1,2.86,1.37c1.85.85,3.7,1.67,5.51,2.36,3.64,1.52,7.31,2.68,11,3.9a147.66,147.66,0,0,0,22.49,4.93A137.09,137.09,0,0,0,230.4,816c15.25-3.25,29.48-9.52,42.47-17.18l9.22-6.38c1.52-1.08,3.08-2.12,4.55-3.24l4.15-3.61,8.22-7.25c2.72-2.47,5.23-5.33,7.81-8A131.5,131.5,0,0,0,330.7,732a133.58,133.58,0,0,0,6.46-21.64,145.31,145.31,0,0,0,2.63-22,164.06,164.06,0,0,0-4.22-42.78,186.62,186.62,0,0,0-5.88-20.26c-1.18-3.31-2.43-6.59-3.8-9.86l-2.15-4.91c-.81-1.73-1.44-3.1-2.58-5.28a16.82,16.82,0,0,0-30.5,14.1Z"/><path class="cls-3" d="M160.36,767.37c.75-2.25-2.22-5.27-6.63-6.74s-8.59-.83-9.34,1.42,2.23,5.26,6.64,6.73S159.62,769.62,160.36,767.37Z"/><path class="cls-3" d="M171,770.92c.36-1.08-1.07-2.54-3.2-3.25s-4.15-.4-4.51.68,1.07,2.55,3.2,3.26S170.67,772,171,770.92Z"/><path class="cls-4" d="M337,652.4l-31.94-7.68-4.33,9.55a126.64,126.64,0,0,1,1.24,31.6,105.71,105.71,0,0,1-2.78,15.76,92.94,92.94,0,0,1-5.31,14.68,90.49,90.49,0,0,1-17.79,25.24c-2,1.76-3.76,3.65-5.88,5.33l-6.42,5L262.44,753c18-9.78,29.76-3.53,20.82,19.31-7.36,18.78-44.64,45.38-90.56,44.09a16.12,16.12,0,0,0,4.63,2.21A136.18,136.18,0,0,0,230.4,816c15.25-3.25,29.48-9.52,42.47-17.18l9.22-6.38c1.52-1.08,3.08-2.12,4.55-3.24l4.15-3.61,8.22-7.25c2.72-2.47,5.23-5.33,7.81-8a127.69,127.69,0,0,0,30.34-60,145.31,145.31,0,0,0,2.63-22A161.76,161.76,0,0,0,337,652.4Z"/><path class="cls-5" d="M239.79,501.83c-11.48,28.64-52.81,60.73-68.5,71.06-26.63,17.54-59.16,32.14-91.77,31.18-10.14-.29-22.53-3.22-28.95-11.64a26.78,26.78,0,0,1-1.33-29.8c7.09-11.1,21.48-15.69,33.55-18.92,41.32-11,85.06-30,107.63-66.63l.5-.79.25-.36,1.73-2.55a26.86,26.86,0,0,1,37.3-7.16C244,475.55,245.2,488.3,239.79,501.83Z"/><path class="cls-4" d="M171.29,572.89c15.69-10.33,57-42.42,68.5-71.06,2.94-7.35,3.89-14.46,2-20.92L240,476.68a29.46,29.46,0,0,0-9.82-10.46,26.86,26.86,0,0,0-37.3,7.16l-1.73,2.55-.25.36-.5.79a103.1,103.1,0,0,1-7.55,10.64c-3.14,3.88-10.09,11-10.09,11,10.66-11.68,33.82,13.75,10,49.29S87.29,610.81,53,595c6.8,6.41,17.55,8.77,26.55,9C112.13,605,144.66,590.43,171.29,572.89Z"/><path class="cls-6" d="M275.71,681.92c-2.94,18.93-17.86,32.33-33.32,29.93s-25.63-19.69-22.69-38.62S237.55,640.9,253,643.3,278.64,663,275.71,681.92Z"/><path class="cls-4" d="M275.71,681.92c2.93-18.93-7.23-36.23-22.69-38.62s-30.38,11-33.32,29.93c-2.46,15.84,4.27,30.49,15.58,36.27-4.6-3.29,13.05-15.35,18.29-19s24.22-21.94,20.92-3.29A43.51,43.51,0,0,0,275.71,681.92Z"/><path class="cls-7" d="M371.85,803.3c19.27-33.8,58.31-108.11,71-167.58-27.86-8.09-68-9.24-96.15-16.33-12.55,61.6-26.43,103.42-50.34,149.85-1.51,2.93-3.49,6.67-2.82,10,1.49,7.49,8.68,13.07,14.48,17.37a153.64,153.64,0,0,0,23.17,14.53,95.26,95.26,0,0,0,18.23,6.95c5.69,1.46,13.68,4,19.2.72C373.87,815.75,373.53,808.37,371.85,803.3Z"/><path class="cls-8" d="M378.68,700.07c-4.6-1-9.5-2.89-13.8-4.33C313,678.37,261.62,667,208.5,653.88c-10.52-2.6-21.73-7.35-27.36-17.37s-3.43-23-1.22-32.69c10.16-44.87,22.36-83.9,12.72-128.8-1.45-6.71-3.21-13-.34-19.61,8.48-19.6,26.5-28.06,47-29.87,55.32-4.86,98.88-19.26,154.26-21.58,16.47-.69,25.83-9.26,38.25,5.15s18.65,39.27,20.46,60.29C457.83,533.65,453.85,601.88,436,662c-3.75,12.59-8.13,22.54-16.48,30.61s-16.92,8.63-27.19,9.46C387.34,702.48,383.28,701,378.68,700.07Z"/><path class="cls-4" d="M193.65,480.2s56.09,33.28,82.57,46.73a21.71,21.71,0,0,0,19,.34c28.13-13.09,110.62-55.35,143-85.35C469.85,412.57,191.56,463.33,193.65,480.2Z"/><path class="cls-9" d="M192.64,475s48.06,28.14,84.56,47a15.36,15.36,0,0,0,12.9.58c27.44-11.25,132.12-56.32,151.73-97.18,22.62-47.11-83.74-42.39-83.74-42.39l-188,47.22Z"/><ellipse class="cls-10" cx="305.99" cy="438.38" rx="143.41" ry="49.21" transform="translate(-33.85 25.69) rotate(-4.56)"/><path class="cls-11" d="M256.21,668.67a361,361,0,0,1,12-65.64c-28.39-4.72-56.75-8.14-85.24-12.21-9.07,33.6-29.2,103.27,21.08,114.62l1.88.43C230.47,711.33,253.93,693.74,256.21,668.67Z"/><path class="cls-12" d="M75.59,143.94S107.47,41.49,128.31,38.25s87.32,83.92,87.32,83.92l3.25,20.9-140,21.77Z"/><path class="cls-9" d="M109.12,131.51c5.82-19.17,13.74-40.45,20.28-53.82,1.78-3.66,7.36-4.6,10.3-1.76,10.89,10.58,26,28.35,38.38,44.85Z"/><path class="cls-10" d="M129.4,77.69c-6.54,13.37-14.46,34.65-20.28,53.82L125.55,129c-.93-15.23,1.35-53.46,8.76-54.59A6.34,6.34,0,0,0,129.4,77.69Z"/><path class="cls-4" d="M131.55,38.46C161.67,62,206.84,131,214.77,143.71l4.11-.64-3.25-20.9S155.29,43.32,131.55,38.46Z"/><path class="cls-4" d="M109.12,131.51c5.82-19.17,13.74-40.45,20.28-53.82a6.34,6.34,0,0,1,4.91-3.33s-6.66-.85-14.58,15.8c-9.85,20.66-18.43,46.4-18.43,46.4l11.94-1.86,1.41-4Z"/><path class="cls-13" d="M318.54,106.17S350.42,3.72,371.26.48,458.58,84.4,458.58,84.4l3.25,20.9-140,21.77Z"/><path class="cls-9" d="M352.06,93.73c5.83-19.16,13.75-40.44,20.28-53.81,1.79-3.66,7.37-4.61,10.31-1.76C393.54,48.74,408.63,66.51,421,83Z"/><path class="cls-10" d="M372.34,39.92c-6.53,13.37-14.45,34.65-20.28,53.81l16.44-2.55c-.93-15.24,1.35-53.46,8.76-54.59A6.37,6.37,0,0,0,372.34,39.92Z"/><path class="cls-4" d="M374.5.68c30.12,23.5,75.29,92.5,83.22,105.25l4.11-.63-3.25-20.9S398.24,5.55,374.5.68Z"/><path class="cls-4" d="M352.06,93.73c5.83-19.16,13.75-40.44,20.28-53.81a6.37,6.37,0,0,1,4.92-3.33s-6.66-.85-14.59,15.79c-9.84,20.67-18.42,46.41-18.42,46.41l11.94-1.86,1.41-4.06Z"/><path class="cls-14" d="M418.51,445.44,218.44,476.55C88.43,496.76,24,450.9,4.29,324.12h0c-19.71-126.79,27.76-190,157.76-210.26l200.07-31.1c130-20.22,194.44,25.65,214.15,152.43h0C596,362,548.51,425.23,418.51,445.44Z"/><path class="cls-4" d="M199.09,417c-48.52,7.54-83.5,4-104-10.58-20-14.22-33.76-44.92-41-91.26s-3.39-79.77,11.32-99.39c15.08-20.08,47.32-34.09,95.84-41.64l200.08-31.1c48.51-7.55,83.49-4,104,10.58,20,14.22,33.76,44.92,41,91.26s3.4,79.77-11.32,99.38c-15.07,20.09-47.32,34.1-95.84,41.64Z"/><path class="cls-15" d="M198.05,410.37c-46.72,7.27-80,4.1-99-9.41-18.44-13.12-31.3-42.33-38.21-86.8s-3.53-76.21,10-94.31c14-18.63,44.76-31.76,91.48-39l200.08-31.1c46.72-7.27,80-4.1,99,9.4,18.44,13.13,31.3,42.34,38.21,86.81s3.54,76.2-10.05,94.31c-14,18.63-44.76,31.76-91.48,39Z"/><path class="cls-4" d="M362.54,82.68l-28.29,4.4C454.73,68.35,524.43,109.3,542.69,226.79h0c5.29,34,14.48,67.15-.13,87.7-21.12,29.71-46.16,57.62-74.77,87.6-15,15.69-43.52,15.23-71.29,19.55L201.1,452C82.93,470.39,23.26,429.8,3.77,317.39c.31,2.21.59,4.4.94,6.65h0C24.42,450.82,88.85,496.69,218.86,476.48l200.07-31.11c130-20.21,177.47-83.47,157.76-210.25h0C557,108.33,492.55,62.47,362.54,82.68Z"/><path class="cls-16" d="M254,281.45s9.72,37.08,28,34.23,16.56-39.52,16.56-39.52a27.5,27.5,0,0,1-20.72-3.52S263.47,287.71,254,281.45Z"/><path class="cls-9" d="M254.83,286.17c-5.09,0-10.86-2-17.13-7.72a3.49,3.49,0,1,1,4.71-5.14c11.36,10.4,19.06,4.9,25.87.05,2.66-1.9,5-3.54,7.36-3.91,2.73-.41,5.42.72,8.26,1.93,6.6,2.82,14.06,6,24.78-8.67a3.49,3.49,0,0,1,5.64,4.12c-14,19.15-26,14-33.15,11-1.65-.71-3.66-1.6-4.46-1.46s-2.86,1.61-4.39,2.7C268.35,281.88,262.33,286.17,254.83,286.17Z"/><path class="cls-9" d="M264.65,305.49c4.45,6.4,10.24,11.29,17.33,10.19,12.12-1.88,15.45-18.59,16.31-29.67C284.14,284.74,270.29,298.86,264.65,305.49Z"/><path class="cls-9" d="M356.83,241.68a3.48,3.48,0,0,1-2-6.31c17.9-12.88,42.64-24.73,43.68-25.23a3.49,3.49,0,0,1,3,6.3c-.2.1-16.25,7.78-31.56,17.26,10.29-.65,24.32-1.19,34.06-.25a3.49,3.49,0,1,1-.67,6.94c-16.12-1.55-45.85,1.25-46.15,1.28Z"/><path class="cls-9" d="M142.69,281a3.49,3.49,0,0,1-1.22-6.76,324.75,324.75,0,0,1,32-10.15c-15.8-3.88-32.21-6.17-32.42-6.2a3.49,3.49,0,1,1,1-6.91c1.14.16,28,3.91,46.78,10.23a3.49,3.49,0,0,1-.56,6.75c-.17,0-17.75,2.93-44.34,12.82A3.44,3.44,0,0,1,142.69,281Z"/><path class="cls-3" d="M172.05,200.08c.67,3.51-8.47,8.21-20.42,10.51s-22.19,1.3-22.86-2.22,8.47-8.21,20.42-10.5S171.38,196.57,172.05,200.08Z"/><path class="cls-3" d="M201,194.53c.33,1.7-4.09,4-9.86,5.08s-10.72.63-11-1.07,4.09-4,9.86-5.07S200.63,192.84,201,194.53Z"/><path class="cls-17" d="M436.36,518.57A33.66,33.66,0,0,1,407,503.63c-10.33-15.45-6.39-33.84,9-44.19h0c.4-.27,40.65-29.86,77.22-69.65A545,545,0,0,0,570.06,283.3a33.68,33.68,0,1,1,59,32.57,611,611,0,0,1-86.16,119.5c-42.23,46-87.23,76.27-89.13,77.54A33.63,33.63,0,0,1,436.36,518.57Z"/><path class="cls-9" d="M602.68,296.5c-7.28-4-15-3.38-17.15,1.38s1.92,11.85,9.19,15.85,15,3.38,17.16-1.38S610,300.5,602.68,296.5Z"/><path class="cls-9" d="M623.63,299.54a3.84,3.84,0,0,0-5.22-1.65,4,4,0,0,0-1.13,5.44A3.83,3.83,0,0,0,622.5,305,4,4,0,0,0,623.63,299.54Z"/><path class="cls-9" d="M589.89,289.38a3.79,3.79,0,1,0-2.36-5A3.94,3.94,0,0,0,589.89,289.38Z"/><path class="cls-9" d="M609.87,283.62a3.76,3.76,0,0,0-5,2.1,4,4,0,0,0,2.58,4.92,3.75,3.75,0,0,0,5-2.1A4,4,0,0,0,609.87,283.62Z"/><path class="cls-9" d="M71.42,580.55c.6,7.47,4.87,13,9.55,12.24s8-7.32,7.38-14.79-4.88-13-9.55-12.25S70.82,573.08,71.42,580.55Z"/><path class="cls-9" d="M68.79,560.44a3.46,3.46,0,0,1,1,4.85A3.59,3.59,0,0,1,65,566.76a3.47,3.47,0,0,1-1-4.85A3.59,3.59,0,0,1,68.79,560.44Z"/><path class="cls-9" d="M68.33,590.79a3.69,3.69,0,1,1-2.62,4.27A3.56,3.56,0,0,1,68.33,590.79Z"/><path class="cls-9" d="M60.57,577.13a3.39,3.39,0,0,1,4.05,2.71,3.63,3.63,0,0,1-2.43,4.39,3.39,3.39,0,0,1-4-2.71A3.63,3.63,0,0,1,60.57,577.13Z"/><g class="cls-18"><path class="cls-19" d="M233.15,627.21h0c-14.78-4.57-21.1-8.85-22-23.51-1-16.88.09-37.4,2.81-52.28,2.9-15.85,10.58-22.2,25.7-21.23a1006.06,1006.06,0,0,1,123.32,16c14.83,2.89,20.71,11,19.66,27.27-1,15-4.78,34.86-10,51.91-4.69,15.41-13.9,17-27.42,17.76a273.22,273.22,0,0,1-50.28-2A370.34,370.34,0,0,1,233.15,627.21Zm6.31-93.66c-13.36-.86-19.58,4.32-22.17,18.47-2.68,14.64-3.76,34.85-2.75,51.47.8,13.32,6.58,16.48,19.6,20.5,40.28,12.46,76.56,17.62,111,15.77,13.61-.73,20.45-2.49,24.38-15.38,5.12-16.82,8.88-36.42,9.83-51.15s-3.64-21.15-16.95-23.74c-19.75-3.84-40.46-7.17-61.15-9.86C280.25,536.9,259.33,534.83,239.46,533.55Z"/></g><path class="cls-4" d="M254.39,556.67c23,2.3,48.63,4.73,71.49,8,5.7.81,8.68-1.78,9.41-6.63.16-1.07.74.17,0,0,.72-4.85-1.68-8.55-7.42-9.35-23.06-3.2-48.94-6.23-72.18-7.73-5.79-.37-8.75,2.13-9.17,7.17h0C246.09,553.15,248.66,556.1,254.39,556.67Z"/><path class="cls-4" d="M358.34,816.3c-1.63,2.1-7.95.24-9.6-.3q-5.36-1.74-10.54-3.93a135.13,135.13,0,0,1-19.92-10.4c-3-1.91-6-4-8.84-6.12-3.67-2.73-7.78-5.65-10.48-9.41-1.38-1.94-1.7-4.43,1.45-4.15,5.08.45,9.8,2.49,14.41,4.54C322,789.7,329,793.11,335.77,797s13.65,7.89,19.48,12.93c1.24,1.08,2.88,2.49,3.32,4.14A2.45,2.45,0,0,1,358.34,816.3Z"/><path class="cls-4" d="M257.71,654.84l-1.21,10.74h0c24.8,6.06,49.38,12.28,73.94,19.44l.06,0,3.9-10.82C284.06,674.62,257.71,654.84,257.71,654.84Z"/><path class="cls-20" d="M204.8,771.2l-.09-.05A91.85,91.85,0,0,1,192,769.63a98.05,98.05,0,0,1-14.61-4.07c-2.32-1-4.7-1.82-6.87-2.91-1.15-.5-2.17-1-3.19-1.58-.53-.27-1-.53-1.41-.78a5.81,5.81,0,0,1-.78-.47A25.26,25.26,0,1,0,139,803.06c1.55.9,2.43,1.32,3.41,1.81s2,1,2.86,1.37c1.85.85,3.7,1.67,5.51,2.36,3.64,1.52,7.31,2.68,11,3.9a147.66,147.66,0,0,0,22.49,4.93,134,134,0,0,0,13.45,1.16C175.33,814.08,181.5,773,204.8,771.2Z"/><path class="cls-21" d="M133.05,798.1a25.11,25.11,0,0,0,5.93,5c1.55.9,2.43,1.32,3.41,1.81s2,1,2.86,1.37c1.85.85,3.7,1.67,5.51,2.36,3.64,1.52,7.31,2.68,11,3.9a147.66,147.66,0,0,0,22.49,4.93c4.34.6,8.71,1,13.11,1.15a16.12,16.12,0,0,1-4.63-2.21C173.78,815.83,153.41,810.6,133.05,798.1Z"/><path class="cls-3" d="M162.25,769.51c-.68,2.27-4.93,2.87-9.49,1.33s-7.72-4.63-7-6.9,4.94-2.88,9.5-1.34S162.94,767.23,162.25,769.51Z"/><path class="cls-3" d="M173.3,773.22c-.33,1.1-2.39,1.39-4.59.65s-3.73-2.24-3.4-3.34,2.38-1.39,4.59-.64S173.62,772.12,173.3,773.22Z"/><ellipse class="cls-1" cx="289.59" cy="866.85" rx="162.82" ry="17.51"/><path class="cls-4" d="M440,501.23A14.34,14.34,0,0,0,433.5,514c1.77,33.54,3.41,163.93-68.42,266.92-1.88,2.69-17.49-.51-23.29-1.25,0,0,21.53,9.84,30.06,23.68,15.7-27.55,44.55-82,61.53-133.42.91-2.51,1.77-5.11,2.59-7.86.4-1.37.76-2.75,1.15-4.12,2.23-7.55,4.15-15,5.69-22.18h0c8.9-39.57,12.44-81.7,11.73-123.32a554,554,0,0,0,88.37-77A611,611,0,0,0,629,315.87a33.68,33.68,0,0,0-13.2-45.77C638.16,281.81,557.42,423.57,440,501.23Z"/></g></g></svg>