<svg xmlns="http://www.w3.org/2000/svg" xmlns:xlink="http://www.w3.org/1999/xlink" viewBox="0 0 848.97 444.09"><defs><style>.cls-1{fill:url(#radial-gradient);}.cls-2{fill:#3fc0f0;}.cls-3{fill:#fff;}</style><radialGradient id="radial-gradient" cx="208.22" cy="-54.83" r="712.8" gradientTransform="translate(67.04 137.23) scale(0.97)" gradientUnits="userSpaceOnUse"><stop offset="0" stop-color="#2b2f2f"/><stop offset="0.09" stop-color="#272b2b"/><stop offset="0.62" stop-color="#161919"/><stop offset="1" stop-color="#101313"/></radialGradient></defs><g id="Camada_2" data-name="Camada 2"><g id="Camada_1-2" data-name="Camada 1"><path class="cls-1" d="M231,444.09c-90.39,0-152.38-15.76-184.26-46.85C15.71,367,0,308.08,0,222s15.71-145,46.69-175.19C78.57,15.76,140.56,0,231,0H618c90.39,0,152.39,15.76,184.27,46.85C833.26,77.06,849,136,849,222s-15.71,145-46.68,175.2c-31.88,31.09-93.87,46.85-184.27,46.85Z"/><path class="cls-2" d="M116.31,228.2l-47-13.45q-7.65-2.22-11.66-6.11t-4-13v-8.89q0-9.14,4-13t11.66-6.11l47-13.45c1.56-.33,2.7-.16,3.4.49a4.48,4.48,0,0,1,1.05,3.34v16.29a5.16,5.16,0,0,1-1.05,3.51,5.58,5.58,0,0,1-3.4,1.55l-35.42,9.5a3.06,3.06,0,0,0-1.67.74,2.48,2.48,0,0,0-.43,1.61,2.45,2.45,0,0,0,.43,1.6,3,3,0,0,0,1.67.74l35.42,9.5a5.64,5.64,0,0,1,3.4,1.55,5.16,5.16,0,0,1,1.05,3.51v16.3a4.47,4.47,0,0,1-1.05,3.33C119,228.37,117.87,228.53,116.31,228.2Z"/><path class="cls-3" d="M227.26,235.48H197.15q-15.43,0-22.9-6.17t-7.46-19V171.92q0-12.82,7.46-19.07t22.9-6.23h30.11a3.81,3.81,0,0,1,4.45,4.44V166a3.81,3.81,0,0,1-4.45,4.44h-24.8c-2.56,0-4.45.52-5.68,1.54a5.68,5.68,0,0,0-1.85,4.63V206a5.29,5.29,0,0,0,1.85,4.5q1.84,1.42,5.68,1.42h24.8a3.81,3.81,0,0,1,4.45,4.44V231a3.81,3.81,0,0,1-4.45,4.44Z"/><path class="cls-3" d="M270.83,231a3.81,3.81,0,0,1-4.44,4.44H248.24A3.81,3.81,0,0,1,243.8,231V198.46a36.61,36.61,0,0,1,1.17-8.52,94.62,94.62,0,0,1,3.64-11.23l10.74-28a5.79,5.79,0,0,1,2.28-3.08,7.34,7.34,0,0,1,4-1h33.19a7.06,7.06,0,0,1,3.89,1,5.85,5.85,0,0,1,2.29,3.08l10.73,28a92.81,92.81,0,0,1,3.64,11.23,36.15,36.15,0,0,1,1.18,8.52V231a3.81,3.81,0,0,1-4.45,4.44H297.49a5.33,5.33,0,0,1-3.64-1,4.3,4.3,0,0,1-1.18-3.39V213.76H270.83Zm7-58.5-5.8,18.76h19.38l-5.8-18.76a4.6,4.6,0,0,0-1.05-1.6,1.89,1.89,0,0,0-1.3-.5h-3.08a1.91,1.91,0,0,0-1.3.5A4.6,4.6,0,0,0,277.86,172.54Z"/><path class="cls-3" d="M372.77,235.48h-20a3.81,3.81,0,0,1-4.44-4.44v-60.6H330.19a3.81,3.81,0,0,1-4.44-4.44V151.06a3.81,3.81,0,0,1,4.44-4.44h65.17a3.81,3.81,0,0,1,4.44,4.44V166a3.81,3.81,0,0,1-4.44,4.44H377.22V231a3.81,3.81,0,0,1-4.45,4.44Z"/><path class="cls-3" d="M490.14,235.48H442.75a3.81,3.81,0,0,1-4.44-4.44v-80a3.81,3.81,0,0,1,4.44-4.44h39.37q12.09,0,17.9,4.63t5.8,14.25v5.93a17.56,17.56,0,0,1-1.79,8.45,11.1,11.1,0,0,1-5.49,4.88q7.89.74,11.72,5.43t3.83,13.7v11.35q0,10.37-5.87,15.31T490.14,235.48ZM466.08,167.6v13.33h10.49a4.63,4.63,0,0,0,3.51-1.23,5.17,5.17,0,0,0,1.18-3.71v-3.45a5.14,5.14,0,0,0-1.18-3.7,4.63,4.63,0,0,0-3.51-1.24Zm0,32.34V214.5h16a4.65,4.65,0,0,0,3.52-1.23,5.2,5.2,0,0,0,1.17-3.7v-4.82a5,5,0,0,0-1.17-3.64,4.79,4.79,0,0,0-3.52-1.17Z"/><path class="cls-3" d="M603.07,212.16a30.24,30.24,0,0,1-1.67,10.3,17.18,17.18,0,0,1-5.92,7.9,31.68,31.68,0,0,1-11.73,5.12,80.24,80.24,0,0,1-18.94,1.85,81.17,81.17,0,0,1-19-1.85A31.65,31.65,0,0,1,534,230.36a17.21,17.21,0,0,1-5.93-7.9,30.24,30.24,0,0,1-1.66-10.3V170.07a30.24,30.24,0,0,1,1.66-10.3,17.57,17.57,0,0,1,5.93-8c2.84-2.23,6.76-3.95,11.78-5.19a81.71,81.71,0,0,1,19-1.85,80.77,80.77,0,0,1,18.94,1.85c5,1.24,8.89,3,11.73,5.19a17.55,17.55,0,0,1,5.92,8,30.24,30.24,0,0,1,1.67,10.3Zm-48.63-4.45a5.35,5.35,0,0,0,1.85,4.14q1.86,1.67,8.52,1.66t8.52-1.66a5.35,5.35,0,0,0,1.85-4.14v-33.2a5.22,5.22,0,0,0-1.85-4q-1.86-1.67-8.52-1.66t-8.52,1.66a5.22,5.22,0,0,0-1.85,4Z"/><path class="cls-3" d="M660.09,235.48h-20a3.81,3.81,0,0,1-4.45-4.44v-60.6H617.51a3.81,3.81,0,0,1-4.44-4.44V151.06a3.81,3.81,0,0,1,4.44-4.44h65.17a3.81,3.81,0,0,1,4.44,4.44V166a3.81,3.81,0,0,1-4.44,4.44H664.53V231a3.8,3.8,0,0,1-4.44,4.44Z"/><path class="cls-2" d="M779.68,214.75l-47,13.45c-1.56.33-2.7.17-3.39-.49a4.43,4.43,0,0,1-1-3.33v-16.3a5.11,5.11,0,0,1,1-3.51,5.58,5.58,0,0,1,3.39-1.55l35.42-9.5a3,3,0,0,0,1.67-.74,2.45,2.45,0,0,0,.43-1.6,2.48,2.48,0,0,0-.43-1.61,3.06,3.06,0,0,0-1.67-.74l-35.42-9.5a5.52,5.52,0,0,1-3.39-1.55,5.11,5.11,0,0,1-1-3.51V158a4.44,4.44,0,0,1,1-3.34c.69-.65,1.83-.82,3.39-.49l47,13.45q7.65,2.22,11.67,6.11t4,13v8.89q0,9.13-4,13T779.68,214.75Z"/><path class="cls-2" d="M380.75,339c-9.64-1.3-20.06-6.51-30.48-19a6.67,6.67,0,1,1,10.24-8.54c18.86,22.59,34.86,14.15,49,6.7,5.53-2.91,10.3-5.43,14.95-5.53,5.27-.08,10.09,2.75,15.16,5.77,11.77,7,25.1,15,49.16-10.09a6.67,6.67,0,1,1,9.62,9.23c-31.41,32.71-52.82,19.94-65.6,12.31-2.94-1.75-6.53-3.95-8.07-3.89s-5.83,2.32-9,4C407.46,334.29,395,340.89,380.75,339Z"/></g></g></svg>