<svg xmlns="http://www.w3.org/2000/svg" viewBox="0 0 741.74 194.55"><defs><style>.cls-1{fill:#3fc0f0;}.cls-2{fill:#fff;}</style></defs><g id="Camada_2" data-name="Camada 2"><g id="Camada_1-2" data-name="Camada 1"><path class="cls-1" d="M62.7,83.43,15.67,70Q8,67.76,4,63.87t-4-13V42q0-9.14,4-13t11.66-6.11l47-13.45c1.56-.33,2.69-.16,3.39.49a4.44,4.44,0,0,1,1,3.34V29.5a5.11,5.11,0,0,1-1,3.51,5.55,5.55,0,0,1-3.39,1.55l-35.42,9.5a3,3,0,0,0-1.67.74,2.42,2.42,0,0,0-.43,1.61,2.39,2.39,0,0,0,.43,1.6,3,3,0,0,0,1.67.74l35.42,9.5a5.61,5.61,0,0,1,3.39,1.55,5.11,5.11,0,0,1,1,3.51v16.3a4.43,4.43,0,0,1-1,3.33C65.39,83.6,64.26,83.76,62.7,83.43Z"/><path class="cls-2" d="M173.65,90.71H143.53q-15.42,0-22.89-6.17t-7.47-19V27.15q0-12.82,7.47-19.07t22.89-6.23h30.12a4.65,4.65,0,0,1,3.39,1,4.65,4.65,0,0,1,1.05,3.39V21.23A4.65,4.65,0,0,1,177,24.62a4.65,4.65,0,0,1-3.39,1.05H148.84c-2.55,0-4.44.52-5.68,1.54a5.71,5.71,0,0,0-1.85,4.63V61.22a5.32,5.32,0,0,0,1.85,4.5q1.86,1.43,5.68,1.42h24.81a3.81,3.81,0,0,1,4.44,4.44V86.27a3.81,3.81,0,0,1-4.44,4.44Z"/><path class="cls-2" d="M217.21,86.27a3.81,3.81,0,0,1-4.44,4.44H194.63a3.81,3.81,0,0,1-4.45-4.44V53.69a36.15,36.15,0,0,1,1.18-8.52A92.81,92.81,0,0,1,195,33.94l10.74-28A5.79,5.79,0,0,1,208,2.84a7.31,7.31,0,0,1,4-1h33.2a7.09,7.09,0,0,1,3.89,1,5.79,5.79,0,0,1,2.28,3.08l10.74,28a94.62,94.62,0,0,1,3.64,11.23A36.61,36.61,0,0,1,267,53.69V86.27a3.81,3.81,0,0,1-4.44,4.44H243.87a5.35,5.35,0,0,1-3.64-1,4.34,4.34,0,0,1-1.17-3.39V69H217.21Zm7-58.5-5.8,18.76h19.37L232,27.77a4.6,4.6,0,0,0-1.05-1.6,1.88,1.88,0,0,0-1.29-.5h-3.09a1.88,1.88,0,0,0-1.29.5A4.6,4.6,0,0,0,224.25,27.77Z"/><path class="cls-2" d="M319.16,90.71h-20a3.81,3.81,0,0,1-4.44-4.44V25.67H276.58a4.66,4.66,0,0,1-3.4-1.05,4.65,4.65,0,0,1-1-3.39V6.29a4.65,4.65,0,0,1,1-3.39,4.66,4.66,0,0,1,3.4-1h65.16a4.66,4.66,0,0,1,3.4,1,4.65,4.65,0,0,1,1.05,3.39V21.23a4.65,4.65,0,0,1-1.05,3.39,4.66,4.66,0,0,1-3.4,1.05H323.6v60.6a3.81,3.81,0,0,1-4.44,4.44Z"/><path class="cls-2" d="M436.53,90.71H389.14a3.81,3.81,0,0,1-4.45-4.44v-80a4.65,4.65,0,0,1,1.05-3.39,4.66,4.66,0,0,1,3.4-1h39.37q12.09,0,17.89,4.63t5.8,14.25v5.93a17.56,17.56,0,0,1-1.79,8.45A11,11,0,0,1,444.92,40c5.27.49,9.17,2.3,11.73,5.43s3.82,7.69,3.82,13.7V70.47q0,10.36-5.86,15.31T436.53,90.71ZM412.46,22.83V36.16H423a4.65,4.65,0,0,0,3.52-1.23,5.21,5.21,0,0,0,1.17-3.71V27.77a5.18,5.18,0,0,0-1.17-3.7A4.65,4.65,0,0,0,423,22.83Zm0,32.34V69.73h16.05A4.63,4.63,0,0,0,432,68.5a5.21,5.21,0,0,0,1.18-3.71V60A5,5,0,0,0,432,56.34a4.77,4.77,0,0,0-3.51-1.17Z"/><path class="cls-2" d="M549.45,67.39a30.24,30.24,0,0,1-1.66,10.3,17.21,17.21,0,0,1-5.93,7.9,31.63,31.63,0,0,1-11.72,5.12,80.33,80.33,0,0,1-18.95,1.85,81.08,81.08,0,0,1-19-1.85,31.7,31.7,0,0,1-11.79-5.12,17.18,17.18,0,0,1-5.92-7.9,30.24,30.24,0,0,1-1.67-10.3V25.3A30.24,30.24,0,0,1,474.48,15a17.55,17.55,0,0,1,5.92-8c2.84-2.23,6.77-3.95,11.79-5.19a98.24,98.24,0,0,1,37.95,0c5,1.24,8.88,3,11.72,5.19a17.57,17.57,0,0,1,5.93,8,30.24,30.24,0,0,1,1.66,10.3Zm-48.62-4.45a5.32,5.32,0,0,0,1.85,4.14q1.85,1.67,8.51,1.66t8.52-1.66a5.35,5.35,0,0,0,1.85-4.14V29.74a5.22,5.22,0,0,0-1.85-4q-1.85-1.66-8.52-1.66t-8.51,1.66a5.19,5.19,0,0,0-1.85,4Z"/><path class="cls-2" d="M606.48,90.71h-20A3.81,3.81,0,0,1,582,86.27V25.67H563.9a4.66,4.66,0,0,1-3.4-1.05,4.65,4.65,0,0,1-1-3.39V6.29a4.65,4.65,0,0,1,1-3.39,4.66,4.66,0,0,1,3.4-1h65.16a4.68,4.68,0,0,1,3.4,1,4.69,4.69,0,0,1,1,3.39V21.23a4.69,4.69,0,0,1-1,3.39,4.68,4.68,0,0,1-3.4,1.05H610.92v60.6a3.81,3.81,0,0,1-4.44,4.44Z"/><path class="cls-1" d="M726.07,70,679,83.43c-1.56.33-2.69.17-3.39-.49a4.43,4.43,0,0,1-1-3.33V63.31a5.11,5.11,0,0,1,1-3.51A5.61,5.61,0,0,1,679,58.25l35.43-9.5a3,3,0,0,0,1.66-.74,2.39,2.39,0,0,0,.43-1.6,2.42,2.42,0,0,0-.43-1.61,3,3,0,0,0-1.66-.74L679,34.56A5.55,5.55,0,0,1,675.65,33a5.11,5.11,0,0,1-1-3.51V13.21a4.44,4.44,0,0,1,1-3.34c.7-.65,1.83-.82,3.39-.49l47,13.45q7.65,2.22,11.66,6.11t4,13v8.89q0,9.13-4,13T726.07,70Z"/><path class="cls-1" d="M327.13,194.21c-9.63-1.3-20.05-6.51-30.47-19a6.66,6.66,0,1,1,10.23-8.54c18.86,22.59,34.87,14.15,49,6.7,5.53-2.91,10.31-5.43,15-5.53,5.27-.08,10.08,2.74,15.16,5.77,11.77,7,25.1,15,49.15-10.09a6.67,6.67,0,0,1,9.63,9.23c-31.42,32.71-52.83,19.94-65.61,12.31-2.94-1.75-6.52-3.95-8.07-3.89s-5.83,2.32-9,4C353.84,189.52,341.34,196.12,327.13,194.21Z"/></g></g></svg>